<?xml version="1.0" encoding="UTF-8" standalone="no"?>
<!-- Created with Inkscape (http://www.inkscape.org/) -->

<svg
   xmlns:dc="http://purl.org/dc/elements/1.1/"
   xmlns:cc="http://creativecommons.org/ns#"
   xmlns:rdf="http://www.w3.org/1999/02/22-rdf-syntax-ns#"
   xmlns:svg="http://www.w3.org/2000/svg"
   xmlns="http://www.w3.org/2000/svg"
   xmlns:sodipodi="http://sodipodi.sourceforge.net/DTD/sodipodi-0.dtd"
   xmlns:inkscape="http://www.inkscape.org/namespaces/inkscape"
   width="110mm"
   height="170mm"
   viewBox="0 0 110 170"
   version="1.1"
   id="svg8"
   inkscape:version="0.92.4 (5da689c313, 2019-01-14)"
   sodipodi:docname="movieimageunavailable.svg"
   inkscape:export-filename="D:\itamar\Documents\Pessoal\Estudos\mymovieslist-web\public\movieimageunavailable.png"
   inkscape:export-xdpi="76.199997"
   inkscape:export-ydpi="76.199997">
  <defs
     id="defs2" />
  <sodipodi:namedview
     id="base"
     pagecolor="#ffffff"
     bordercolor="#666666"
     borderopacity="1.0"
     inkscape:pageopacity="0.0"
     inkscape:pageshadow="2"
     inkscape:zoom="1.1577487"
     inkscape:cx="216.51712"
     inkscape:cy="337.73491"
     inkscape:document-units="mm"
     inkscape:current-layer="layer2"
     showgrid="false" />
  <metadata
     id="metadata5">
    <rdf:RDF>
      <cc:Work
         rdf:about="">
        <dc:format>image/svg+xml</dc:format>
        <dc:type
           rdf:resource="http://purl.org/dc/dcmitype/StillImage" />
        <dc:title></dc:title>
      </cc:Work>
    </rdf:RDF>
  </metadata>
  <g
     inkscape:groupmode="layer"
     id="layer2"
     inkscape:label="background">
    <rect
       style="fill:#f0f0f0;fill-opacity:1;fill-rule:nonzero;stroke:none;stroke-width:5.55576181;stroke-linecap:round;stroke-miterlimit:4;stroke-dasharray:none;stroke-opacity:1"
       id="rect1014"
       width="110"
       height="170"
       x="0"
       y="0" />
  </g>
  <g
     inkscape:label="Layer 1"
     inkscape:groupmode="layer"
     id="layer1"
     transform="translate(0,-127)">
    <g
       id="text"
       inkscape:label="#text">
      <path
         d="m 34.919984,197.03264 v -7.63475 q 0,-1.41988 0.861237,-2.31991 0.861237,-0.90003 2.234561,-0.90003 1.629368,0 2.506122,1.49746 0.535364,-0.80692 1.148316,-1.14831 0.612953,-0.34915 1.512984,-0.34915 1.427637,0 2.188008,0.90003 0.760371,0.90003 0.760371,2.59147 v 7.36319 h -3.15011 v -6.8899 q 0,-0.51208 -0.08535,-0.67502 -0.07759,-0.1707 -0.325873,-0.1707 -0.465534,0 -0.465534,0.79141 v 6.94421 h -3.15011 v -6.8899 q 0,-0.50433 -0.08535,-0.67502 -0.08535,-0.1707 -0.333632,-0.1707 -0.465534,0 -0.465534,0.84572 v 6.8899 z"
         style="font-style:normal;font-variant:normal;font-weight:normal;font-stretch:normal;font-size:15.89021111px;line-height:1.25;font-family:'Bauhaus 93';-inkscape-font-specification:'Bauhaus 93, Normal';font-variant-ligatures:normal;font-variant-caps:normal;font-variant-numeric:normal;font-feature-settings:normal;text-align:center;letter-spacing:0px;word-spacing:0px;writing-mode:lr-tb;text-anchor:middle;fill:#a9a9a9;fill-opacity:1;stroke:none;stroke-width:0.39725527"
         id="path924"
         inkscape:connector-curvature="0" />
      <path
         d="m 51.500736,189.13409 q 1.644886,0 2.816478,1.18711 1.179352,1.17935 1.179352,2.83199 0,1.67592 -1.19487,2.85527 -1.18711,1.17936 -2.87079,1.17936 -1.683679,0 -2.878549,-1.17936 -1.194869,-1.18711 -1.194869,-2.85527 0,-1.69919 1.194869,-2.85527 1.19487,-1.16383 2.948379,-1.16383 z m -0.07759,2.86303 q -0.465534,0 -0.791407,0.34139 -0.325874,0.33363 -0.325874,0.82244 0,0.48105 0.325874,0.82244 0.333632,0.3414 0.791407,0.3414 0.465533,0 0.791407,-0.3414 0.333632,-0.34139 0.333632,-0.82244 0,-0.48881 -0.325874,-0.82244 -0.325873,-0.34139 -0.799165,-0.34139 z"
         style="font-style:normal;font-variant:normal;font-weight:normal;font-stretch:normal;font-size:15.89021111px;line-height:1.25;font-family:'Bauhaus 93';-inkscape-font-specification:'Bauhaus 93, Normal';font-variant-ligatures:normal;font-variant-caps:normal;font-variant-numeric:normal;font-feature-settings:normal;text-align:center;letter-spacing:0px;word-spacing:0px;writing-mode:lr-tb;text-anchor:middle;fill:#a9a9a9;fill-opacity:1;stroke:none;stroke-width:0.39725527"
         id="path926"
         inkscape:connector-curvature="0" />
      <path
         d="m 62.518363,189.29702 -3.615644,8.03822 -3.56909,-8.03822 h 2.769924 l 0.822443,2.08715 0.900031,-2.08715 z"
         style="font-style:normal;font-variant:normal;font-weight:normal;font-stretch:normal;font-size:15.89021111px;line-height:1.25;font-family:'Bauhaus 93';-inkscape-font-specification:'Bauhaus 93, Normal';font-variant-ligatures:normal;font-variant-caps:normal;font-variant-numeric:normal;font-feature-settings:normal;text-align:center;letter-spacing:0px;word-spacing:0px;writing-mode:lr-tb;text-anchor:middle;fill:#a9a9a9;fill-opacity:1;stroke:none;stroke-width:0.39725527"
         id="path928"
         inkscape:connector-curvature="0" />
      <path
         d="m 65.722786,189.29702 v 7.73562 H 62.82096 v -7.73562 z m -1.443154,-3.4527 q 0.589676,0 1.016415,0.41898 0.434498,0.41122 0.434498,0.97762 0,0.60519 -0.411221,0.99313 -0.403463,0.38795 -1.039692,0.38795 -0.636229,0 -1.04745,-0.38795 -0.403463,-0.38794 -0.403463,-0.99313 0,-0.5664 0.426739,-0.97762 0.434498,-0.41898 1.024174,-0.41898 z"
         style="font-style:normal;font-variant:normal;font-weight:normal;font-stretch:normal;font-size:15.89021111px;line-height:1.25;font-family:'Bauhaus 93';-inkscape-font-specification:'Bauhaus 93, Normal';font-variant-ligatures:normal;font-variant-caps:normal;font-variant-numeric:normal;font-feature-settings:normal;text-align:center;letter-spacing:0px;word-spacing:0px;writing-mode:lr-tb;text-anchor:middle;fill:#a9a9a9;fill-opacity:1;stroke:none;stroke-width:0.39725527"
         id="path930"
         inkscape:connector-curvature="0" />
      <path
         d="m 75.048975,193.63424 h -4.399292 q -0.100866,-0.33363 -0.100866,-0.61295 0,-0.38794 0.13966,-0.76037 h 1.47419 q -0.155178,-0.86124 -0.969862,-0.86124 -0.543122,0 -0.884513,0.46554 -0.341392,0.45777 -0.341392,1.17935 0,0.75261 0.325874,1.21814 0.333632,0.46554 0.868996,0.46554 0.434498,0 0.83796,-0.4345 l 1.652644,1.98628 q -1.156075,0.90779 -2.568193,0.90779 -1.722474,0 -2.894067,-1.15608 -1.171593,-1.15607 -1.171593,-2.86303 0,-1.6992 1.179352,-2.87079 1.187111,-1.17159 2.909585,-1.17159 1.683679,0 2.824236,1.14831 1.148316,1.14056 1.148316,2.81648 0,0.1707 -0.03104,0.54312 z"
         style="font-style:normal;font-variant:normal;font-weight:normal;font-stretch:normal;font-size:15.89021111px;line-height:1.25;font-family:'Bauhaus 93';-inkscape-font-specification:'Bauhaus 93, Normal';font-variant-ligatures:normal;font-variant-caps:normal;font-variant-numeric:normal;font-feature-settings:normal;text-align:center;letter-spacing:0px;word-spacing:0px;writing-mode:lr-tb;text-anchor:middle;fill:#a9a9a9;fill-opacity:1;stroke:none;stroke-width:0.39725527"
         id="path932"
         inkscape:connector-curvature="0" />
      <path
         d="m 36.502798,206.85199 v 10.59089 h -3.15011 v -10.59089 z"
         style="font-style:normal;font-variant:normal;font-weight:normal;font-stretch:normal;font-size:15.89021111px;line-height:1.25;font-family:'Bauhaus 93';-inkscape-font-specification:'Bauhaus 93, Normal';font-variant-ligatures:normal;font-variant-caps:normal;font-variant-numeric:normal;font-feature-settings:normal;text-align:center;letter-spacing:0px;word-spacing:0px;writing-mode:lr-tb;text-anchor:middle;fill:#a9a9a9;fill-opacity:1;stroke:none;stroke-width:0.39725527"
         id="path934"
         inkscape:connector-curvature="0" />
      <path
         d="m 49.02565,217.44288 h -2.901825 v -4.17429 q 0,-0.48105 -0.100866,-0.66726 -0.100866,-0.18622 -0.364668,-0.18622 -0.48881,0 -0.48881,0.86124 v 4.16653 h -2.901826 v -4.17429 q 0,-0.48105 -0.108624,-0.66726 -0.100866,-0.18622 -0.364668,-0.18622 -0.481051,0 -0.481051,0.86124 v 4.16653 h -2.901826 v -4.76396 q 0,-1.3035 0.876755,-2.21129 0.876754,-0.91555 2.125936,-0.91555 1.287976,0 2.31215,1.08625 1.140557,-1.08625 2.281114,-1.08625 1.450913,0 2.327668,1.05521 0.690541,0.82244 0.690541,2.3975 z"
         style="font-style:normal;font-variant:normal;font-weight:normal;font-stretch:normal;font-size:15.89021111px;line-height:1.25;font-family:'Bauhaus 93';-inkscape-font-specification:'Bauhaus 93, Normal';font-variant-ligatures:normal;font-variant-caps:normal;font-variant-numeric:normal;font-feature-settings:normal;text-align:center;letter-spacing:0px;word-spacing:0px;writing-mode:lr-tb;text-anchor:middle;fill:#a9a9a9;fill-opacity:1;stroke:none;stroke-width:0.39725527"
         id="path936"
         inkscape:connector-curvature="0" />
      <path
         d="m 55.031033,214.54105 v 3.00269 q -0.356909,0.0621 -0.651747,0.0621 -1.74575,0 -2.909584,-1.14831 -1.163834,-1.14832 -1.163834,-2.87855 0,-1.68368 1.171593,-2.85527 1.179351,-1.1716 2.863031,-1.1716 1.877652,0 2.956138,1.10177 1.086245,1.094 1.086245,2.99493 v 3.7941 h -2.901826 v -3.58461 q 0,-0.61295 -0.302597,-0.97762 -0.294838,-0.36467 -0.799166,-0.36467 -0.457774,0 -0.791407,0.33363 -0.333632,0.33363 -0.333632,0.79141 0,0.48105 0.302597,0.79141 0.302597,0.31035 0.76813,0.31035 0.380186,0 0.706059,-0.20173 z"
         style="font-style:normal;font-variant:normal;font-weight:normal;font-stretch:normal;font-size:15.89021111px;line-height:1.25;font-family:'Bauhaus 93';-inkscape-font-specification:'Bauhaus 93, Normal';font-variant-ligatures:normal;font-variant-caps:normal;font-variant-numeric:normal;font-feature-settings:normal;text-align:center;letter-spacing:0px;word-spacing:0px;writing-mode:lr-tb;text-anchor:middle;fill:#a9a9a9;fill-opacity:1;stroke:none;stroke-width:0.39725527"
         id="path938"
         inkscape:connector-curvature="0" />
      <path
         d="m 64.202043,214.25397 v 2.6613 q -0.62847,0.23277 -1.202628,0.23277 -1.40436,0 -2.38198,-1.06297 -0.969862,-1.06297 -0.969862,-2.59923 0,-1.6604 1.171593,-2.80096 1.171593,-1.14056 2.878549,-1.14056 0.90779,0 1.737992,0.36467 0.830201,0.36467 1.303494,0.97762 0.791407,1.01642 0.791407,2.94838 v 2.54492 q 0,2.07162 -1.179352,3.3596 -1.171593,1.29573 -3.057003,1.29573 -0.574158,0 -1.450913,-0.28708 v -2.63802 q 0.566399,0.31036 1.148316,0.31036 0.783648,0 1.210387,-0.51985 0.426739,-0.51209 0.426739,-1.47419 v -2.90958 q 0,-1.21815 -0.985379,-1.21815 -0.41898,0 -0.737095,0.32587 -0.310356,0.31812 -0.310356,0.7371 0,0.44226 0.294838,0.73709 0.302597,0.29484 0.744854,0.29484 0.294838,0 0.566399,-0.13966 z"
         style="font-style:normal;font-variant:normal;font-weight:normal;font-stretch:normal;font-size:15.89021111px;line-height:1.25;font-family:'Bauhaus 93';-inkscape-font-specification:'Bauhaus 93, Normal';font-variant-ligatures:normal;font-variant-caps:normal;font-variant-numeric:normal;font-feature-settings:normal;text-align:center;letter-spacing:0px;word-spacing:0px;writing-mode:lr-tb;text-anchor:middle;fill:#a9a9a9;fill-opacity:1;stroke:none;stroke-width:0.39725527"
         id="path940"
         inkscape:connector-curvature="0" />
      <path
         d="M 76.833521,214.04448 H 72.43423 q -0.100866,-0.33363 -0.100866,-0.61295 0,-0.38795 0.13966,-0.76037 h 1.474189 q -0.155177,-0.86124 -0.969861,-0.86124 -0.543122,0 -0.884514,0.46553 -0.341391,0.45778 -0.341391,1.17936 0,0.75261 0.325873,1.21814 0.333633,0.46554 0.868996,0.46554 0.434498,0 0.837961,-0.4345 l 1.652644,1.98627 q -1.156075,0.90779 -2.568194,0.90779 -1.722474,0 -2.894066,-1.15607 -1.171593,-1.15608 -1.171593,-2.86303 0,-1.6992 1.179352,-2.87079 1.18711,-1.17159 2.909584,-1.17159 1.68368,0 2.824237,1.14831 1.148316,1.14056 1.148316,2.81648 0,0.17069 -0.03104,0.54312 z"
         style="font-style:normal;font-variant:normal;font-weight:normal;font-stretch:normal;font-size:15.89021111px;line-height:1.25;font-family:'Bauhaus 93';-inkscape-font-specification:'Bauhaus 93, Normal';font-variant-ligatures:normal;font-variant-caps:normal;font-variant-numeric:normal;font-feature-settings:normal;text-align:center;letter-spacing:0px;word-spacing:0px;writing-mode:lr-tb;text-anchor:middle;fill:#a9a9a9;fill-opacity:1;stroke:none;stroke-width:0.39725527"
         id="path942"
         inkscape:connector-curvature="0" />
      <path
         d="m 21.287611,227.26223 v 6.86662 q 0,1.81558 -1.086245,2.90182 -1.078486,1.08625 -2.878549,1.08625 -1.792304,0 -2.746648,-1.05521 -0.946585,-1.05521 -0.946585,-3.03373 v -6.76575 h 3.15011 v 6.75799 q 0,0.96986 0.690542,0.96986 0.667265,0 0.667265,-0.96986 v -6.75799 z"
         style="font-style:normal;font-variant:normal;font-weight:normal;font-stretch:normal;font-size:15.89021111px;line-height:1.25;font-family:'Bauhaus 93';-inkscape-font-specification:'Bauhaus 93, Normal';font-variant-ligatures:normal;font-variant-caps:normal;font-variant-numeric:normal;font-feature-settings:normal;text-align:center;letter-spacing:0px;word-spacing:0px;writing-mode:lr-tb;text-anchor:middle;fill:#a9a9a9;fill-opacity:1;stroke:none;stroke-width:0.39725527"
         id="path944"
         inkscape:connector-curvature="0" />
      <path
         d="m 29.899981,237.85311 h -2.901826 v -4.36825 q 0,-0.66727 -0.550881,-0.66727 -0.543122,0 -0.543122,0.66727 v 4.36825 h -2.901826 v -4.31394 q 0,-1.51298 1.000897,-2.54492 1.000897,-1.03969 2.45181,-1.03969 1.660403,0 2.6613,1.20263 0.783648,0.93883 0.783648,2.61475 z"
         style="font-style:normal;font-variant:normal;font-weight:normal;font-stretch:normal;font-size:15.89021111px;line-height:1.25;font-family:'Bauhaus 93';-inkscape-font-specification:'Bauhaus 93, Normal';font-variant-ligatures:normal;font-variant-caps:normal;font-variant-numeric:normal;font-feature-settings:normal;text-align:center;letter-spacing:0px;word-spacing:0px;writing-mode:lr-tb;text-anchor:middle;fill:#a9a9a9;fill-opacity:1;stroke:none;stroke-width:0.39725527"
         id="path946"
         inkscape:connector-curvature="0" />
      <path
         d="m 35.897604,234.95129 v 3.00269 q -0.356909,0.0621 -0.651747,0.0621 -1.745751,0 -2.909585,-1.14832 -1.163834,-1.14831 -1.163834,-2.87854 0,-1.68368 1.171593,-2.85528 1.179352,-1.17159 2.863031,-1.17159 1.877652,0 2.956138,1.10176 1.086245,1.09401 1.086245,2.99494 v 3.79409 h -2.901826 v -3.5846 q 0,-0.61296 -0.302597,-0.97762 -0.294837,-0.36467 -0.799165,-0.36467 -0.457775,0 -0.791407,0.33363 -0.333633,0.33363 -0.333633,0.79141 0,0.48105 0.302597,0.7914 0.302597,0.31036 0.76813,0.31036 0.380186,0 0.70606,-0.20173 z"
         style="font-style:normal;font-variant:normal;font-weight:normal;font-stretch:normal;font-size:15.89021111px;line-height:1.25;font-family:'Bauhaus 93';-inkscape-font-specification:'Bauhaus 93, Normal';font-variant-ligatures:normal;font-variant-caps:normal;font-variant-numeric:normal;font-feature-settings:normal;text-align:center;letter-spacing:0px;word-spacing:0px;writing-mode:lr-tb;text-anchor:middle;fill:#a9a9a9;fill-opacity:1;stroke:none;stroke-width:0.39725527"
         id="path948"
         inkscape:connector-curvature="0" />
      <path
         d="m 46.752295,230.1175 -3.615644,8.03821 -3.56909,-8.03821 h 2.769924 l 0.822443,2.08714 0.900031,-2.08714 z"
         style="font-style:normal;font-variant:normal;font-weight:normal;font-stretch:normal;font-size:15.89021111px;line-height:1.25;font-family:'Bauhaus 93';-inkscape-font-specification:'Bauhaus 93, Normal';font-variant-ligatures:normal;font-variant-caps:normal;font-variant-numeric:normal;font-feature-settings:normal;text-align:center;letter-spacing:0px;word-spacing:0px;writing-mode:lr-tb;text-anchor:middle;fill:#a9a9a9;fill-opacity:1;stroke:none;stroke-width:0.39725527"
         id="path950"
         inkscape:connector-curvature="0" />
      <path
         d="m 51.353319,234.95129 v 3.00269 q -0.356909,0.0621 -0.651747,0.0621 -1.745751,0 -2.909585,-1.14832 -1.163834,-1.14831 -1.163834,-2.87854 0,-1.68368 1.171593,-2.85528 1.179352,-1.17159 2.863031,-1.17159 1.877652,0 2.956138,1.10176 1.086245,1.09401 1.086245,2.99494 v 3.79409 h -2.901826 v -3.5846 q 0,-0.61296 -0.302596,-0.97762 -0.294838,-0.36467 -0.799166,-0.36467 -0.457775,0 -0.791407,0.33363 -0.333633,0.33363 -0.333633,0.79141 0,0.48105 0.302597,0.7914 0.302597,0.31036 0.768131,0.31036 0.380185,0 0.706059,-0.20173 z"
         style="font-style:normal;font-variant:normal;font-weight:normal;font-stretch:normal;font-size:15.89021111px;line-height:1.25;font-family:'Bauhaus 93';-inkscape-font-specification:'Bauhaus 93, Normal';font-variant-ligatures:normal;font-variant-caps:normal;font-variant-numeric:normal;font-feature-settings:normal;text-align:center;letter-spacing:0px;word-spacing:0px;writing-mode:lr-tb;text-anchor:middle;fill:#a9a9a9;fill-opacity:1;stroke:none;stroke-width:0.39725527"
         id="path952"
         inkscape:connector-curvature="0" />
      <path
         d="m 59.298423,230.1175 v 7.73561 h -2.901825 v -7.73561 z m -1.443153,-3.45271 q 0.589675,0 1.016414,0.41898 0.434498,0.41122 0.434498,0.97762 0,0.6052 -0.411221,0.99314 -0.403462,0.38794 -1.039691,0.38794 -0.63623,0 -1.047451,-0.38794 -0.403462,-0.38794 -0.403462,-0.99314 0,-0.5664 0.426739,-0.97762 0.434498,-0.41898 1.024174,-0.41898 z"
         style="font-style:normal;font-variant:normal;font-weight:normal;font-stretch:normal;font-size:15.89021111px;line-height:1.25;font-family:'Bauhaus 93';-inkscape-font-specification:'Bauhaus 93, Normal';font-variant-ligatures:normal;font-variant-caps:normal;font-variant-numeric:normal;font-feature-settings:normal;text-align:center;letter-spacing:0px;word-spacing:0px;writing-mode:lr-tb;text-anchor:middle;fill:#a9a9a9;fill-opacity:1;stroke:none;stroke-width:0.39725527"
         id="path954"
         inkscape:connector-curvature="0" />
      <path
         d="m 63.922722,227.26223 v 10.59088 h -2.901826 v -10.59088 z"
         style="font-style:normal;font-variant:normal;font-weight:normal;font-stretch:normal;font-size:15.89021111px;line-height:1.25;font-family:'Bauhaus 93';-inkscape-font-specification:'Bauhaus 93, Normal';font-variant-ligatures:normal;font-variant-caps:normal;font-variant-numeric:normal;font-feature-settings:normal;text-align:center;letter-spacing:0px;word-spacing:0px;writing-mode:lr-tb;text-anchor:middle;fill:#a9a9a9;fill-opacity:1;stroke:none;stroke-width:0.39725527"
         id="path956"
         inkscape:connector-curvature="0" />
      <path
         d="m 69.912588,234.95129 v 3.00269 q -0.356909,0.0621 -0.651747,0.0621 -1.745751,0 -2.909585,-1.14832 -1.163834,-1.14831 -1.163834,-2.87854 0,-1.68368 1.171593,-2.85528 1.179352,-1.17159 2.863031,-1.17159 1.877652,0 2.956138,1.10176 1.086245,1.09401 1.086245,2.99494 v 3.79409 h -2.901826 v -3.5846 q 0,-0.61296 -0.302596,-0.97762 -0.294838,-0.36467 -0.799166,-0.36467 -0.457775,0 -0.791407,0.33363 -0.333633,0.33363 -0.333633,0.79141 0,0.48105 0.302597,0.7914 0.302597,0.31036 0.76813,0.31036 0.380186,0 0.70606,-0.20173 z"
         style="font-style:normal;font-variant:normal;font-weight:normal;font-stretch:normal;font-size:15.89021111px;line-height:1.25;font-family:'Bauhaus 93';-inkscape-font-specification:'Bauhaus 93, Normal';font-variant-ligatures:normal;font-variant-caps:normal;font-variant-numeric:normal;font-feature-settings:normal;text-align:center;letter-spacing:0px;word-spacing:0px;writing-mode:lr-tb;text-anchor:middle;fill:#a9a9a9;fill-opacity:1;stroke:none;stroke-width:0.39725527"
         id="path958"
         inkscape:connector-curvature="0" />
      <path
         d="m 77.686997,227.26223 v 6.33901 q 0,1.54402 1.109521,1.54402 0.473293,0 0.799166,-0.31811 0.333633,-0.32588 0.333633,-0.78365 0,-0.47329 -0.310356,-0.79141 -0.310356,-0.32587 -0.760372,-0.32587 -0.318114,0 -0.729335,0.27932 v -3.19667 q 0.512087,-0.0465 0.775889,-0.0465 1.637126,0 2.80096,1.17935 1.171593,1.17935 1.171593,2.83976 0,1.69919 -1.187111,2.86303 -1.18711,1.16383 -2.917343,1.16383 -0.868996,0 -1.699198,-0.38018 -0.822442,-0.38019 -1.357806,-1.02418 -0.931067,-1.11728 -0.931067,-2.89406 v -6.44764 z"
         style="font-style:normal;font-variant:normal;font-weight:normal;font-stretch:normal;font-size:15.89021111px;line-height:1.25;font-family:'Bauhaus 93';-inkscape-font-specification:'Bauhaus 93, Normal';font-variant-ligatures:normal;font-variant-caps:normal;font-variant-numeric:normal;font-feature-settings:normal;text-align:center;letter-spacing:0px;word-spacing:0px;writing-mode:lr-tb;text-anchor:middle;fill:#a9a9a9;fill-opacity:1;stroke:none;stroke-width:0.39725527"
         id="path960"
         inkscape:connector-curvature="0" />
      <path
         d="m 87.04422,227.26223 v 10.59088 h -2.901826 v -10.59088 z"
         style="font-style:normal;font-variant:normal;font-weight:normal;font-stretch:normal;font-size:15.89021111px;line-height:1.25;font-family:'Bauhaus 93';-inkscape-font-specification:'Bauhaus 93, Normal';font-variant-ligatures:normal;font-variant-caps:normal;font-variant-numeric:normal;font-feature-settings:normal;text-align:center;letter-spacing:0px;word-spacing:0px;writing-mode:lr-tb;text-anchor:middle;fill:#a9a9a9;fill-opacity:1;stroke:none;stroke-width:0.39725527"
         id="path962"
         inkscape:connector-curvature="0" />
      <path
         d="m 96.339378,234.45472 h -4.399292 q -0.100866,-0.33363 -0.100866,-0.61295 0,-0.38795 0.13966,-0.76037 h 1.47419 q -0.155178,-0.86124 -0.969862,-0.86124 -0.543122,0 -0.884513,0.46553 -0.341392,0.45778 -0.341392,1.17935 0,0.75262 0.325874,1.21815 0.333632,0.46553 0.868996,0.46553 0.434498,0 0.83796,-0.43449 l 1.652644,1.98627 q -1.156075,0.90779 -2.568193,0.90779 -1.722474,0 -2.894067,-1.15607 -1.171593,-1.15608 -1.171593,-2.86303 0,-1.6992 1.179352,-2.87079 1.18711,-1.1716 2.909584,-1.1716 1.68368,0 2.824237,1.14832 1.148316,1.14056 1.148316,2.81648 0,0.17069 -0.03104,0.54312 z"
         style="font-style:normal;font-variant:normal;font-weight:normal;font-stretch:normal;font-size:15.89021111px;line-height:1.25;font-family:'Bauhaus 93';-inkscape-font-specification:'Bauhaus 93, Normal';font-variant-ligatures:normal;font-variant-caps:normal;font-variant-numeric:normal;font-feature-settings:normal;text-align:center;letter-spacing:0px;word-spacing:0px;writing-mode:lr-tb;text-anchor:middle;fill:#a9a9a9;fill-opacity:1;stroke:none;stroke-width:0.39725527"
         id="path964"
         inkscape:connector-curvature="0" />
    </g>
    <path
       style="fill:#cecece;fill-opacity:1;fill-rule:nonzero;stroke:none;stroke-width:0.36115697;stroke-linecap:round;stroke-miterlimit:4;stroke-dasharray:none;stroke-opacity:1"
       d="M 6.1169205,178.08215 H 103.88308 v 1.93916 H 6.1169205 Z"
       id="rect827" />
    <path
       style="fill:#cecece;fill-opacity:1;fill-rule:nonzero;stroke:none;stroke-width:0.30559817;stroke-linecap:round;stroke-miterlimit:4;stroke-dasharray:none;stroke-opacity:1"
       d="m 20,170.31999 h 70 v 1.93916 H 20 Z"
       id="rect840" />
    <path
       transform="scale(1,-1)"
       style="fill:#cecece;fill-opacity:1;fill-rule:nonzero;stroke:none;stroke-width:0.36115697;stroke-linecap:round;stroke-miterlimit:4;stroke-dasharray:none;stroke-opacity:1"
       d="M 6.1169205,-245.91788 H 103.88308 v 1.93916 H 6.1169205 Z"
       id="rect852" />
    <path
       transform="scale(1,-1)"
       style="fill:#cecece;fill-opacity:1;fill-rule:nonzero;stroke:none;stroke-width:0.30559817;stroke-linecap:round;stroke-miterlimit:4;stroke-dasharray:none;stroke-opacity:1"
       d="m 20,-253.68004 h 70 v 1.93916 H 20 Z"
       id="rect854" />
    <path
       style="fill:#a9a9a9;fill-opacity:1;fill-rule:nonzero;stroke:none;stroke-width:1;stroke-linecap:round;stroke-miterlimit:4;stroke-dasharray:none;stroke-opacity:1"
       inkscape:transform-center-y="-1.0184552"
       d="m 55,145.20309 2.422816,7.33067 7.720581,0.0389 -6.223199,4.56953 2.348766,7.35474 L 55,159.99042 l -6.268964,4.50655 2.348766,-7.35474 -6.223199,-4.56954 7.720581,-0.0389 z"
       id="star1" />
    <path
       transform="scale(1,-1)"
       style="fill:#a9a9a9;fill-opacity:1;fill-rule:nonzero;stroke:none;stroke-width:1;stroke-linecap:round;stroke-miterlimit:4;stroke-dasharray:none;stroke-opacity:1"
       inkscape:transform-center-y="1.0184536"
       d="m 55,-278.79693 2.422816,7.33068 7.720581,0.0389 -6.223199,4.56954 2.348766,7.35474 L 55,-264.00959 l -6.268964,4.50655 2.348766,-7.35474 -6.223199,-4.56954 7.720581,-0.0389 z"
       id="star2"
       inkscape:label="#star2" />
  </g>
</svg>
