<?xml version="1.0" encoding="UTF-8"?>
<!-- Created with Inkscape (http://www.inkscape.org/) -->
<svg width="32mm" height="32mm" version="1.1" viewBox="0 0 32 32" xmlns="http://www.w3.org/2000/svg">
 <g transform="translate(-40.809 -34.892)">
  <path transform="matrix(.26458 0 0 .26458 40.809 34.892)" d="m9.5195 3.7793c-3.1804 0-5.7402 2.5598-5.7402 5.7402v101.9c0 3.1804 2.5599 5.7422 5.7402 5.7422h103c3.1804 0 5.7422-2.5618 5.7422-5.7422v-101.9c0-3.1804-2.5618-5.7402-5.7422-5.7402h-103zm-0.87891 4.7832h8.7578v7.8203h-8.7578v-7.8203zm19.201 0h8.7578v7.8203h-8.7578v-7.8203zm19.199 0h8.7578v7.8203h-8.7578v-7.8203zm19.199 0h8.7598v7.8203h-8.7598v-7.8203zm19.201 0h8.7578v7.8203h-8.7578v-7.8203zm19.199 0h8.7578v7.8203h-8.7578v-7.8203zm-96 96h8.7578v7.8203h-8.7578v-7.8203zm19.201 0h8.7578v7.8203h-8.7578v-7.8203zm19.199 0h8.7578v7.8203h-8.7578v-7.8203zm19.199 0h8.7598v7.8203h-8.7598v-7.8203zm19.201 0h8.7578v7.8203h-8.7578v-7.8203zm19.199 0h8.7578v7.8203h-8.7578v-7.8203z" fill="#0000c3" stroke-linecap="round" stroke-linejoin="round" stroke-width=".37795"/>
  <path transform="matrix(.26458 0 0 .26458 40.809 34.892)" d="m44.273 24.57-2.0234 3.7793h37.568l-2.0234-3.7793h-33.521zm-6.2422 11.658-2.0254 3.7793h50.055l-2.0234-3.7793h-46.006zm-6.2441 11.66-2.0234 3.7793h62.541l-2.0234-3.7793h-58.494zm-6.2441 11.66-2.0234 3.7793h75.029l-2.0234-3.7793h-70.982z" fill="#ff0" stroke-linecap="round" stroke-linejoin="round" stroke-width=".37795"/>
  <path d="m48.709 53.731v6.5035h1.6459v-3.9238l1.2687 3.9238h1.4862l1.2687-3.9057v3.9057h1.6459v-3.9238l1.2692 3.9238h1.4857l1.2733-3.9238v3.9238h5.1459v-2.2228h-3.1362v-4.2807h-3.0034l-1.016 3.4741-1.0201-3.4741h-3.6334l-1.016 3.4741-1.0201-3.4741z" fill="#ff0" stroke-width=".26458"/>
 </g>
</svg>
