<!-- Created with Inkscape (http://www.inkscape.org/) -->
<svg width="110mm" height="170mm" version="1.1" viewBox="0 0 110 170" xmlns="http://www.w3.org/2000/svg">
 <rect width="110" height="170" style="fill:#f0f0f0"/>
 <g transform="translate(0,-127)">
  <g id="text">
   <path d="m34.92 197.03v-7.6348q0-1.4199 0.86124-2.3199t2.2346-0.90003q1.6294 0 2.5061 1.4975 0.53536-0.80692 1.1483-1.1483 0.61295-0.34915 1.513-0.34915 1.4276 0 2.188 0.90003t0.76037 2.5915v7.3632h-3.1501v-6.8899q0-0.51208-0.08535-0.67502-0.07759-0.1707-0.32587-0.1707-0.46553 0-0.46553 0.79141v6.9442h-3.1501v-6.8899q0-0.50433-0.08535-0.67502-0.08535-0.1707-0.33363-0.1707-0.46553 0-0.46553 0.84572v6.8899z" style="fill:#a9a9a9;font-feature-settings:normal;font-variant-caps:normal;font-variant-ligatures:normal;font-variant-numeric:normal"/>
   <path d="m51.501 189.13q1.6449 0 2.8165 1.1871 1.1794 1.1794 1.1794 2.832 0 1.6759-1.1949 2.8553-1.1871 1.1794-2.8708 1.1794-1.6837 0-2.8785-1.1794-1.1949-1.1871-1.1949-2.8553 0-1.6992 1.1949-2.8553 1.1949-1.1638 2.9484-1.1638zm-0.07759 2.863q-0.46553 0-0.79141 0.34139-0.32587 0.33363-0.32587 0.82244 0 0.48105 0.32587 0.82244 0.33363 0.3414 0.79141 0.3414 0.46553 0 0.79141-0.3414 0.33363-0.34139 0.33363-0.82244 0-0.48881-0.32587-0.82244-0.32587-0.34139-0.79916-0.34139z" style="fill:#a9a9a9;font-feature-settings:normal;font-variant-caps:normal;font-variant-ligatures:normal;font-variant-numeric:normal"/>
   <path d="m62.518 189.3-3.6156 8.0382-3.5691-8.0382h2.7699l0.82244 2.0872 0.90003-2.0872z" style="fill:#a9a9a9;font-feature-settings:normal;font-variant-caps:normal;font-variant-ligatures:normal;font-variant-numeric:normal"/>
   <path d="m65.723 189.3v7.7356h-2.9018v-7.7356zm-1.4432-3.4527q0.58968 0 1.0164 0.41898 0.4345 0.41122 0.4345 0.97762 0 0.60519-0.41122 0.99313-0.40346 0.38795-1.0397 0.38795t-1.0474-0.38795q-0.40346-0.38794-0.40346-0.99313 0-0.5664 0.42674-0.97762 0.4345-0.41898 1.0242-0.41898z" style="fill:#a9a9a9;font-feature-settings:normal;font-variant-caps:normal;font-variant-ligatures:normal;font-variant-numeric:normal"/>
   <path d="m75.049 193.63h-4.3993q-0.10087-0.33363-0.10087-0.61295 0-0.38794 0.13966-0.76037h1.4742q-0.15518-0.86124-0.96986-0.86124-0.54312 0-0.88451 0.46554-0.34139 0.45777-0.34139 1.1794 0 0.75261 0.32587 1.2181 0.33363 0.46554 0.869 0.46554 0.4345 0 0.83796-0.4345l1.6526 1.9863q-1.1561 0.90779-2.5682 0.90779-1.7225 0-2.8941-1.1561-1.1716-1.1561-1.1716-2.863 0-1.6992 1.1794-2.8708 1.1871-1.1716 2.9096-1.1716 1.6837 0 2.8242 1.1483 1.1483 1.1406 1.1483 2.8165 0 0.1707-0.03104 0.54312z" style="fill:#a9a9a9;font-feature-settings:normal;font-variant-caps:normal;font-variant-ligatures:normal;font-variant-numeric:normal"/>
   <path d="m36.503 206.85v10.591h-3.1501v-10.591z" style="fill:#a9a9a9;font-feature-settings:normal;font-variant-caps:normal;font-variant-ligatures:normal;font-variant-numeric:normal"/>
   <path d="m49.026 217.44h-2.9018v-4.1743q0-0.48105-0.10087-0.66726-0.10087-0.18622-0.36467-0.18622-0.48881 0-0.48881 0.86124v4.1665h-2.9018v-4.1743q0-0.48105-0.10862-0.66726-0.10087-0.18622-0.36467-0.18622-0.48105 0-0.48105 0.86124v4.1665h-2.9018v-4.764q0-1.3035 0.87676-2.2113 0.87675-0.91555 2.1259-0.91555 1.288 0 2.3122 1.0862 1.1406-1.0862 2.2811-1.0862 1.4509 0 2.3277 1.0552 0.69054 0.82244 0.69054 2.3975z" style="fill:#a9a9a9;font-feature-settings:normal;font-variant-caps:normal;font-variant-ligatures:normal;font-variant-numeric:normal"/>
   <path d="m55.031 214.54v3.0027q-0.35691 0.0621-0.65175 0.0621-1.7458 0-2.9096-1.1483-1.1638-1.1483-1.1638-2.8786 0-1.6837 1.1716-2.8553 1.1794-1.1716 2.863-1.1716 1.8777 0 2.9561 1.1018 1.0862 1.094 1.0862 2.9949v3.7941h-2.9018v-3.5846q0-0.61295-0.3026-0.97762-0.29484-0.36467-0.79917-0.36467-0.45777 0-0.79141 0.33363-0.33363 0.33363-0.33363 0.79141 0 0.48105 0.3026 0.79141 0.3026 0.31035 0.76813 0.31035 0.38019 0 0.70606-0.20173z" style="fill:#a9a9a9;font-feature-settings:normal;font-variant-caps:normal;font-variant-ligatures:normal;font-variant-numeric:normal"/>
   <path d="m64.202 214.25v2.6613q-0.62847 0.23277-1.2026 0.23277-1.4044 0-2.382-1.063-0.96986-1.063-0.96986-2.5992 0-1.6604 1.1716-2.801t2.8785-1.1406q0.90779 0 1.738 0.36467 0.8302 0.36467 1.3035 0.97762 0.79141 1.0164 0.79141 2.9484v2.5449q0 2.0716-1.1794 3.3596-1.1716 1.2957-3.057 1.2957-0.57416 0-1.4509-0.28708v-2.638q0.5664 0.31036 1.1483 0.31036 0.78365 0 1.2104-0.51985 0.42674-0.51209 0.42674-1.4742v-2.9096q0-1.2182-0.98538-1.2182-0.41898 0-0.7371 0.32587-0.31036 0.31812-0.31036 0.7371 0 0.44226 0.29484 0.73709 0.3026 0.29484 0.74485 0.29484 0.29484 0 0.5664-0.13966z" style="fill:#a9a9a9;font-feature-settings:normal;font-variant-caps:normal;font-variant-ligatures:normal;font-variant-numeric:normal"/>
   <path d="m76.834 214.04h-4.3993q-0.10087-0.33363-0.10087-0.61295 0-0.38795 0.13966-0.76037h1.4742q-0.15518-0.86124-0.96986-0.86124-0.54312 0-0.88451 0.46553-0.34139 0.45778-0.34139 1.1794 0 0.75261 0.32587 1.2181 0.33363 0.46554 0.869 0.46554 0.4345 0 0.83796-0.4345l1.6526 1.9863q-1.1561 0.90779-2.5682 0.90779-1.7225 0-2.8941-1.1561-1.1716-1.1561-1.1716-2.863 0-1.6992 1.1794-2.8708 1.1871-1.1716 2.9096-1.1716 1.6837 0 2.8242 1.1483 1.1483 1.1406 1.1483 2.8165 0 0.17069-0.03104 0.54312z" style="fill:#a9a9a9;font-feature-settings:normal;font-variant-caps:normal;font-variant-ligatures:normal;font-variant-numeric:normal"/>
   <path d="m21.288 227.26v6.8666q0 1.8156-1.0862 2.9018-1.0785 1.0862-2.8785 1.0862-1.7923 0-2.7466-1.0552-0.94658-1.0552-0.94658-3.0337v-6.7658h3.1501v6.758q0 0.96986 0.69054 0.96986 0.66726 0 0.66726-0.96986v-6.758z" style="fill:#a9a9a9;font-feature-settings:normal;font-variant-caps:normal;font-variant-ligatures:normal;font-variant-numeric:normal"/>
   <path d="m29.9 237.85h-2.9018v-4.3682q0-0.66727-0.55088-0.66727-0.54312 0-0.54312 0.66727v4.3682h-2.9018v-4.3139q0-1.513 1.0009-2.5449 1.0009-1.0397 2.4518-1.0397 1.6604 0 2.6613 1.2026 0.78365 0.93883 0.78365 2.6148z" style="fill:#a9a9a9;font-feature-settings:normal;font-variant-caps:normal;font-variant-ligatures:normal;font-variant-numeric:normal"/>
   <path d="m35.898 234.95v3.0027q-0.35691 0.0621-0.65175 0.0621-1.7458 0-2.9096-1.1483-1.1638-1.1483-1.1638-2.8785 0-1.6837 1.1716-2.8553 1.1794-1.1716 2.863-1.1716 1.8777 0 2.9561 1.1018 1.0862 1.094 1.0862 2.9949v3.7941h-2.9018v-3.5846q0-0.61296-0.3026-0.97762-0.29484-0.36467-0.79916-0.36467-0.45778 0-0.79141 0.33363-0.33363 0.33363-0.33363 0.79141 0 0.48105 0.3026 0.7914 0.3026 0.31036 0.76813 0.31036 0.38019 0 0.70606-0.20173z" style="fill:#a9a9a9;font-feature-settings:normal;font-variant-caps:normal;font-variant-ligatures:normal;font-variant-numeric:normal"/>
   <path d="m46.752 230.12-3.6156 8.0382-3.5691-8.0382h2.7699l0.82244 2.0871 0.90003-2.0871z" style="fill:#a9a9a9;font-feature-settings:normal;font-variant-caps:normal;font-variant-ligatures:normal;font-variant-numeric:normal"/>
   <path d="m51.353 234.95v3.0027q-0.35691 0.0621-0.65175 0.0621-1.7458 0-2.9096-1.1483-1.1638-1.1483-1.1638-2.8785 0-1.6837 1.1716-2.8553 1.1794-1.1716 2.863-1.1716 1.8777 0 2.9561 1.1018 1.0862 1.094 1.0862 2.9949v3.7941h-2.9018v-3.5846q0-0.61296-0.3026-0.97762-0.29484-0.36467-0.79917-0.36467-0.45778 0-0.79141 0.33363-0.33363 0.33363-0.33363 0.79141 0 0.48105 0.3026 0.7914 0.3026 0.31036 0.76813 0.31036 0.38018 0 0.70606-0.20173z" style="fill:#a9a9a9;font-feature-settings:normal;font-variant-caps:normal;font-variant-ligatures:normal;font-variant-numeric:normal"/>
   <path d="m59.298 230.12v7.7356h-2.9018v-7.7356zm-1.4432-3.4527q0.58968 0 1.0164 0.41898 0.4345 0.41122 0.4345 0.97762 0 0.6052-0.41122 0.99314-0.40346 0.38794-1.0397 0.38794-0.63623 0-1.0475-0.38794-0.40346-0.38794-0.40346-0.99314 0-0.5664 0.42674-0.97762 0.4345-0.41898 1.0242-0.41898z" style="fill:#a9a9a9;font-feature-settings:normal;font-variant-caps:normal;font-variant-ligatures:normal;font-variant-numeric:normal"/>
   <path d="m63.923 227.26v10.591h-2.9018v-10.591z" style="fill:#a9a9a9;font-feature-settings:normal;font-variant-caps:normal;font-variant-ligatures:normal;font-variant-numeric:normal"/>
   <path d="m69.913 234.95v3.0027q-0.35691 0.0621-0.65175 0.0621-1.7458 0-2.9096-1.1483-1.1638-1.1483-1.1638-2.8785 0-1.6837 1.1716-2.8553 1.1794-1.1716 2.863-1.1716 1.8777 0 2.9561 1.1018 1.0862 1.094 1.0862 2.9949v3.7941h-2.9018v-3.5846q0-0.61296-0.3026-0.97762-0.29484-0.36467-0.79917-0.36467-0.45778 0-0.79141 0.33363-0.33363 0.33363-0.33363 0.79141 0 0.48105 0.3026 0.7914 0.3026 0.31036 0.76813 0.31036 0.38019 0 0.70606-0.20173z" style="fill:#a9a9a9;font-feature-settings:normal;font-variant-caps:normal;font-variant-ligatures:normal;font-variant-numeric:normal"/>
   <path d="m77.687 227.26v6.339q0 1.544 1.1095 1.544 0.47329 0 0.79917-0.31811 0.33363-0.32588 0.33363-0.78365 0-0.47329-0.31036-0.79141-0.31036-0.32587-0.76037-0.32587-0.31811 0-0.72934 0.27932v-3.1967q0.51209-0.0465 0.77589-0.0465 1.6371 0 2.801 1.1794 1.1716 1.1794 1.1716 2.8398 0 1.6992-1.1871 2.863-1.1871 1.1638-2.9173 1.1638-0.869 0-1.6992-0.38018-0.82244-0.38019-1.3578-1.0242-0.93107-1.1173-0.93107-2.8941v-6.4476z" style="fill:#a9a9a9;font-feature-settings:normal;font-variant-caps:normal;font-variant-ligatures:normal;font-variant-numeric:normal"/>
   <path d="m87.044 227.26v10.591h-2.9018v-10.591z" style="fill:#a9a9a9;font-feature-settings:normal;font-variant-caps:normal;font-variant-ligatures:normal;font-variant-numeric:normal"/>
   <path d="m96.339 234.45h-4.3993q-0.10087-0.33363-0.10087-0.61295 0-0.38795 0.13966-0.76037h1.4742q-0.15518-0.86124-0.96986-0.86124-0.54312 0-0.88451 0.46553-0.34139 0.45778-0.34139 1.1794 0 0.75262 0.32587 1.2182 0.33363 0.46553 0.869 0.46553 0.4345 0 0.83796-0.43449l1.6526 1.9863q-1.1561 0.90779-2.5682 0.90779-1.7225 0-2.8941-1.1561-1.1716-1.1561-1.1716-2.863 0-1.6992 1.1794-2.8708 1.1871-1.1716 2.9096-1.1716 1.6837 0 2.8242 1.1483 1.1483 1.1406 1.1483 2.8165 0 0.17069-0.03104 0.54312z" style="fill:#a9a9a9;font-feature-settings:normal;font-variant-caps:normal;font-variant-ligatures:normal;font-variant-numeric:normal"/>
  </g>
  <path d="m6.1169 178.08h97.766v1.9392h-97.766z" style="fill:#cecece"/>
  <path d="m20 170.32h70v1.9392h-70z" style="fill:#cecece"/>
  <path transform="scale(1,-1)" d="m6.1169-245.92h97.766v1.9392h-97.766z" style="fill:#cecece"/>
  <path transform="scale(1,-1)" d="m20-253.68h70v1.9392h-70z" style="fill:#cecece"/>
  <path d="m55 145.2 2.4228 7.3307 7.7206 0.0389-6.2232 4.5695 2.3488 7.3547-6.269-4.5065-6.269 4.5066 2.3488-7.3547-6.2232-4.5695 7.7206-0.0389z" style="fill:#a9a9a9"/>
  <path transform="scale(1,-1)" d="m55-278.8 2.4228 7.3307 7.7206 0.0389-6.2232 4.5695 2.3488 7.3547-6.269-4.5065-6.269 4.5066 2.3488-7.3547-6.2232-4.5695 7.7206-0.0389z" style="fill:#a9a9a9"/>
 </g>
</svg>
